<?xml version="1.0" encoding="UTF-8"?>
<svg width="400px" height="312px" viewBox="0 0 400 312" version="1.1" xmlns="http://www.w3.org/2000/svg" xmlns:xlink="http://www.w3.org/1999/xlink">
    <!-- Generator: Sketch 52.6 (67491) - http://www.bohemiancoding.com/sketch -->
    <title>line-menu</title>
    <desc>Created with Sketch.</desc>
    <g id="line-menu" stroke="none" stroke-width="1" fill="none" fill-rule="evenodd">
        <path d="M33.0189653,58 C14.1509851,58 0,45.9579585 0,29.9019031 C0,13.8458478 14.1509851,1 33.0189653,1 L366.036456,1 C384.904437,1 400,13.8458478 400,29.9019031 C400,45.9579585 384.904437,58 366.036456,58 L33.0189653,58 Z" id="Fill-1" fill="#000000"></path>
        <path d="M366.036456,127 C384.904437,127 400,139.845848 400,155.901903 C400,171.957958 384.904437,184 366.036456,184 L33.0189653,184 C14.1509851,184 0,171.957958 0,155.901903 C0,139.845848 14.1509851,127 33.0189653,127 L366.036456,127 Z" id="Fill-3" fill="#000000"></path>
        <path d="M366.036456,254 C384.904437,254 400,266.043102 400,282.10057 C400,298.158039 384.904437,311 366.036456,311 L33.0189653,311 C14.1509851,311 0,298.158039 0,282.10057 C0,266.043102 14.1509851,254 33.0189653,254 L366.036456,254 Z" id="Fill-4" fill="#000000"></path>
    </g>
</svg>