<?xml version="1.0" encoding="UTF-8"?>
<svg width="272px" height="273px" viewBox="0 0 272 273" version="1.1" xmlns="http://www.w3.org/2000/svg" xmlns:xlink="http://www.w3.org/1999/xlink">
    <!-- Generator: Sketch 52.6 (67491) - http://www.bohemiancoding.com/sketch -->
    <title>letter-x</title>
    <desc>Created with Sketch.</desc>
    <g id="letter-x" stroke="none" stroke-width="1" fill="none" fill-rule="evenodd">
        <path d="M172.602,136.001 L263.801,227.2 C274.199,237.598 274.199,253.598 263.801,264.001 C259,268.802 251.801,272.001 245.398,272.001 C239,272.001 231.801,268.802 227,264.001 L135.801,172.802 L44.602,264.001 C39.801,268.802 32.602,272.001 26.199,272.001 C19.801,272.001 12.602,268.802 7.801,264.001 C-2.602,253.598 -2.602,237.598 7.801,227.2 L99,136.001 L7.801,44.802 C-2.602,34.399 -2.602,18.399 7.801,8.001 C18.199,-2.402 34.199,-2.402 44.602,8.001 L135.801,99.2 L227,8.001 C237.398,-2.402 253.398,-2.402 263.801,8.001 C274.199,18.399 274.199,34.399 263.801,44.802 L172.602,136.001 Z" id="Fill-1" fill="#000000"></path>
    </g>
</svg>